<svg width="44" height="44" viewBox="0 0 44 44" fill="none" xmlns="http://www.w3.org/2000/svg">
<circle cx="22" cy="22" r="22" fill="#DEEBFF"/>
<path d="M28.2395 18.9752L27.4943 19.0598L28.2395 18.9752ZM28.6867 22.9153L29.4319 22.8307V22.8307L28.6867 22.9153ZM15.3133 22.9153L14.5681 22.8307L14.5681 22.8307L15.3133 22.9153ZM15.7605 18.9752L16.5057 19.0598L15.7605 18.9752ZM14.4478 24.8721L13.8767 24.386H13.8767L14.4478 24.8721ZM29.5522 24.8721L28.9811 25.3583L29.5522 24.8721ZM24.2699 14.3737H23.5199C23.5199 14.6942 23.7237 14.9794 24.027 15.0832L24.2699 14.3737ZM19.7301 14.3737L19.973 15.0832C20.2763 14.9794 20.4801 14.6942 20.4801 14.3737H19.7301ZM25.7023 30.2632C25.8477 29.8753 25.6511 29.4431 25.2632 29.2977C24.8753 29.1523 24.4431 29.3489 24.2977 29.7368L25.7023 30.2632ZM19.7023 29.7368C19.5569 29.3489 19.1247 29.1523 18.7368 29.2977C18.3489 29.4431 18.1523 29.8753 18.2977 30.2632L19.7023 29.7368ZM27.7772 27.25H16.2228V28.75H27.7772V27.25ZM27.4943 19.0598L27.9415 22.9998L29.4319 22.8307L28.9848 18.8906L27.4943 19.0598ZM16.0585 22.9998L16.5057 19.0598L15.0152 18.8906L14.5681 22.8307L16.0585 22.9998ZM15.0189 25.3583C15.5962 24.6801 15.9603 23.8652 16.0585 22.9998L14.5681 22.8307C14.5052 23.3846 14.2707 23.9231 13.8767 24.386L15.0189 25.3583ZM27.9415 22.9998C28.0397 23.8652 28.4038 24.6801 28.9811 25.3583L30.1233 24.386C29.7293 23.9231 29.4948 23.3846 29.4319 22.8307L27.9415 22.9998ZM16.2228 27.25C15.5678 27.25 15.1044 26.926 14.8906 26.5492C14.6841 26.1854 14.6871 25.748 15.0189 25.3583L13.8767 24.386C13.1114 25.285 13.0878 26.4116 13.586 27.2895C14.0768 28.1544 15.0495 28.75 16.2228 28.75V27.25ZM27.7772 28.75C28.9505 28.75 29.9232 28.1544 30.414 27.2895C30.9122 26.4116 30.8886 25.285 30.1233 24.386L28.9811 25.3583C29.3129 25.748 29.3159 26.1854 29.1094 26.5492C28.8956 26.926 28.4322 27.25 27.7772 27.25V28.75ZM25.0199 14.3737V14.2699H23.5199V14.3737H25.0199ZM28.9848 18.8906C28.7055 16.4303 26.8806 14.4748 24.5129 13.6641L24.027 15.0832C25.9441 15.7396 27.2913 17.271 27.4943 19.0598L28.9848 18.8906ZM20.4801 14.3737V14.2699H18.9801V14.3737H20.4801ZM16.5057 19.0598C16.7087 17.271 18.0559 15.7396 19.973 15.0832L19.4871 13.6641C17.1194 14.4748 15.2945 16.4303 15.0152 18.8906L16.5057 19.0598ZM22 12.75C22.8394 12.75 23.5199 13.4305 23.5199 14.2699H25.0199C25.0199 12.6021 23.6679 11.25 22 11.25V12.75ZM22 11.25C20.3321 11.25 18.9801 12.6021 18.9801 14.2699H20.4801C20.4801 13.4305 21.1606 12.75 22 12.75V11.25ZM24.2977 29.7368C23.975 30.5979 23.0846 31.25 22 31.25V32.75C23.6855 32.75 25.1516 31.7325 25.7023 30.2632L24.2977 29.7368ZM22 31.25C20.9154 31.25 20.025 30.5979 19.7023 29.7368L18.2977 30.2632C18.8484 31.7325 20.3145 32.75 22 32.75V31.25Z" fill="#797C7B" fill-opacity="0.39"/>
</svg>
