<svg width="44" height="44" viewBox="0 0 44 44" fill="none" xmlns="http://www.w3.org/2000/svg">
<circle cx="22" cy="22" r="22" fill="#DEEBFF"/>
<path d="M19 19C19 17.3431 20.3431 16 22 16C23.6569 16 25 17.3431 25 19C25 20.313 24.1565 21.4289 22.9819 21.8356C22.46 22.0163 22 22.4477 22 23V24M32 22C32 27.5228 27.5228 32 22 32C16.4772 32 12 27.5228 12 22C12 16.4772 16.4772 12 22 12C27.5228 12 32 16.4772 32 22Z" stroke="#797C7B" stroke-opacity="0.39" stroke-width="1.5" stroke-linecap="round"/>
<circle cx="22" cy="27" r="1" fill="#797C7B" fill-opacity="0.39"/>
</svg>
