<svg width="44" height="44" viewBox="0 0 44 44" fill="none" xmlns="http://www.w3.org/2000/svg">
<circle cx="22" cy="22" r="22" fill="#DEEBFF"/>
<ellipse cx="20" cy="27.5" rx="7" ry="3.5" stroke="#797C7B" stroke-opacity="0.39" stroke-width="1.5" stroke-linejoin="round"/>
<circle cx="20" cy="17" r="4" stroke="#797C7B" stroke-opacity="0.39" stroke-width="1.5" stroke-linejoin="round"/>
<path fill-rule="evenodd" clip-rule="evenodd" d="M25.0448 20.2498C24.7228 20.7487 24.3288 21.1968 23.8774 21.5793C24.2319 21.6904 24.609 21.7502 25.0001 21.7502C27.0712 21.7502 28.7501 20.0713 28.7501 18.0002C28.7501 16.0445 27.2529 14.4384 25.3421 14.2656C25.6083 14.7846 25.8011 15.3474 25.9068 15.9404C26.6979 16.2891 27.2501 17.0802 27.2501 18.0002C27.2501 19.2279 26.2668 20.226 25.0448 20.2498Z" fill="#797C7B" fill-opacity="0.39"/>
<path fill-rule="evenodd" clip-rule="evenodd" d="M28.9997 27.5565C28.9896 28.1707 28.8148 28.7608 28.5009 29.3111C28.8693 29.2097 29.2144 29.0923 29.5312 28.9603C30.1284 28.7115 30.6606 28.3961 31.055 28.0076C31.452 27.6165 31.7501 27.1066 31.7501 26.5002C31.7501 25.8938 31.452 25.3839 31.055 24.9928C30.6606 24.6043 30.1284 24.2889 29.5312 24.0401C28.5086 23.614 27.1907 23.3396 25.7495 23.2686C26.7517 23.7776 27.5702 24.4172 28.1351 25.1445C28.4329 25.2277 28.7072 25.3218 28.9543 25.4247C29.443 25.6283 29.7894 25.8517 30.0023 26.0614C30.2125 26.2685 30.2501 26.4163 30.2501 26.5002C30.2501 26.5841 30.2125 26.7319 30.0023 26.939C29.7961 27.1421 29.4645 27.3581 28.9997 27.5565Z" fill="#797C7B" fill-opacity="0.39"/>
</svg>
