<svg width="36" height="36" viewBox="0 0 36 36" fill="none" xmlns="http://www.w3.org/2000/svg">
<circle cx="18" cy="18" r="18" fill="#000E08"/>
<path d="M23.7199 15.2279L22.9747 15.3125L23.7199 15.2279ZM24.1298 18.8396L24.875 18.7551V18.7551L24.1298 18.8396ZM11.8708 18.8396L11.1256 18.7551H11.1256L11.8708 18.8396ZM12.2808 15.2279L13.026 15.3125L12.2808 15.2279ZM11.0775 20.6334L10.5064 20.1473H10.5064L11.0775 20.6334ZM24.9232 20.6334L24.3521 21.1196L24.9232 20.6334ZM20.0811 11.0098H19.3311C19.3311 11.3304 19.5349 11.6156 19.8382 11.7194L20.0811 11.0098ZM15.9195 11.0098L16.1625 11.7194C16.4658 11.6156 16.6695 11.3304 16.6695 11.0098H15.9195ZM21.4526 25.5972C21.598 25.2093 21.4014 24.777 21.0135 24.6317C20.6257 24.4863 20.1934 24.6829 20.048 25.0708L21.4526 25.5972ZM15.9526 25.0708C15.8073 24.6829 15.375 24.4863 14.9871 24.6317C14.5993 24.777 14.4027 25.2093 14.548 25.5972L15.9526 25.0708ZM23.2961 22.7507H12.7046V24.2507H23.2961V22.7507ZM22.9747 15.3125L23.3846 18.9242L24.875 18.7551L24.4651 15.1433L22.9747 15.3125ZM12.616 18.9242L13.026 15.3125L11.5355 15.1433L11.1256 18.7551L12.616 18.9242ZM11.6486 21.1196C12.1854 20.4889 12.5245 19.7304 12.616 18.9242L11.1256 18.7551C11.0695 19.2499 10.8599 19.732 10.5064 20.1473L11.6486 21.1196ZM23.3846 18.9242C23.4761 19.7304 23.8152 20.4889 24.3521 21.1196L25.4943 20.1473C25.1408 19.732 24.9312 19.2499 24.875 18.7551L23.3846 18.9242ZM12.7046 22.7507C12.1257 22.7507 11.7222 22.465 11.5377 22.1399C11.3606 21.8278 11.3625 21.4556 11.6486 21.1196L10.5064 20.1473C9.78679 20.9926 9.76427 22.054 10.2331 22.8802C10.6946 23.6934 11.6074 24.2507 12.7046 24.2507V22.7507ZM23.2961 24.2507C24.3932 24.2507 25.3061 23.6934 25.7675 22.8802C26.2364 22.054 26.2139 20.9926 25.4943 20.1473L24.3521 21.1196C24.6381 21.4556 24.6401 21.8278 24.463 22.1399C24.2785 22.465 23.8749 22.7507 23.2961 22.7507V24.2507ZM20.8311 11.0098V10.9148H19.3311V11.0098H20.8311ZM24.4651 15.1433C24.206 12.86 22.5132 11.0498 20.3241 10.3003L19.8382 11.7194C21.5768 12.3147 22.7918 13.7008 22.9747 15.3125L24.4651 15.1433ZM16.6695 11.0098V10.9148H15.1695V11.0098H16.6695ZM13.026 15.3125C13.2089 13.7008 14.4239 12.3147 16.1625 11.7194L15.6766 10.3003C13.4875 11.0498 11.7947 12.86 11.5355 15.1433L13.026 15.3125ZM18.0003 9.58398C18.7353 9.58398 19.3311 10.1798 19.3311 10.9148H20.8311C20.8311 9.35137 19.5637 8.08398 18.0003 8.08398V9.58398ZM18.0003 8.08398C16.4369 8.08398 15.1695 9.35137 15.1695 10.9148H16.6695C16.6695 10.1798 17.2654 9.58398 18.0003 9.58398V8.08398ZM20.048 25.0708C19.7617 25.8348 18.9695 26.4173 18.0003 26.4173V27.9173C19.5704 27.9173 20.9384 26.9694 21.4526 25.5972L20.048 25.0708ZM18.0003 26.4173C17.0312 26.4173 16.239 25.8348 15.9526 25.0708L14.548 25.5972C15.0623 26.9694 16.4303 27.9173 18.0003 27.9173V26.4173Z" fill="white"/>
</svg>
