<svg width="26" height="26" viewBox="0 0 26 26" fill="none" xmlns="http://www.w3.org/2000/svg">
<path d="M13.9193 4.33337H12.081C11.0656 4.33337 10.2426 5.10941 10.2426 6.06671C10.2426 7.16219 9.07046 7.85866 8.1083 7.3349L8.01058 7.2817C7.13129 6.80305 6.00695 7.08711 5.49929 7.91615L4.58009 9.41726C4.07244 10.2463 4.3737 11.3064 5.25299 11.785C6.21561 12.309 6.21561 13.691 5.25299 14.215C4.3737 14.6937 4.07244 15.7538 4.58009 16.5828L5.49929 18.0839C6.00695 18.913 7.13129 19.197 8.01058 18.7184L8.1083 18.6652C9.07046 18.1414 10.2426 18.8379 10.2426 19.9334C10.2426 20.8907 11.0656 21.6667 12.081 21.6667H13.9193C14.9347 21.6667 15.7577 20.8907 15.7577 19.9334C15.7577 18.8379 16.9299 18.1414 17.892 18.6652L17.9897 18.7184C18.869 19.197 19.9934 18.913 20.501 18.0839L21.4202 16.5828C21.9279 15.7538 21.6266 14.6937 20.7473 14.215C19.7847 13.691 19.7847 12.309 20.7473 11.785C21.6266 11.3064 21.9279 10.2463 21.4202 9.41727L20.501 7.91616C19.9934 7.08712 18.869 6.80307 17.9897 7.28171L17.892 7.33491C16.9299 7.85867 15.7577 7.16219 15.7577 6.06671C15.7577 5.10941 14.9347 4.33337 13.9193 4.33337Z" stroke="#797C7B" stroke-opacity="0.39" stroke-width="1.5" stroke-linejoin="round"/>
<circle cx="13" cy="13" r="3.25" stroke="#797C7B" stroke-opacity="0.39" stroke-width="1.5"/>
</svg>
