<svg width="26" height="26" viewBox="0 0 26 26" fill="none" xmlns="http://www.w3.org/2000/svg">
<path d="M13.9193 4.3335H12.081C11.0656 4.3335 10.2426 5.10954 10.2426 6.06683C10.2426 7.16231 9.07046 7.85878 8.1083 7.33502L8.01058 7.28182C7.13129 6.80318 6.00695 7.08723 5.49929 7.91627L4.58009 9.41738C4.07244 10.2464 4.3737 11.3065 5.25299 11.7852C6.21561 12.3092 6.21561 13.6912 5.25299 14.2152C4.3737 14.6938 4.07244 15.7539 4.58009 16.5829L5.49929 18.0841C6.00695 18.9131 7.13129 19.1971 8.01058 18.7185L8.1083 18.6653C9.07046 18.1415 10.2426 18.838 10.2426 19.9335C10.2426 20.8908 11.0656 21.6668 12.081 21.6668H13.9193C14.9347 21.6668 15.7577 20.8908 15.7577 19.9335C15.7577 18.838 16.9299 18.1415 17.892 18.6653L17.9897 18.7185C18.869 19.1971 19.9934 18.9131 20.501 18.084L21.4202 16.5829C21.9279 15.7539 21.6266 14.6938 20.7473 14.2152C19.7847 13.6912 19.7847 12.3092 20.7473 11.7852C21.6266 11.3065 21.9279 10.2464 21.4202 9.41739L20.501 7.91628C19.9934 7.08724 18.869 6.80319 17.9897 7.28184L17.892 7.33503C16.9299 7.85879 15.7577 7.16231 15.7577 6.06683C15.7577 5.10954 14.9347 4.3335 13.9193 4.3335Z" stroke="#3D4A7A" stroke-width="1.5" stroke-linejoin="round"/>
<circle cx="13" cy="13" r="3.25" stroke="#3D4A7A" stroke-width="1.5"/>
</svg>
